<?xml version="1.0" encoding="UTF-8" standalone="no"?>
<svg
   xmlns:dc="http://purl.org/dc/elements/1.1/"
   xmlns:cc="http://creativecommons.org/ns#"
   xmlns:rdf="http://www.w3.org/1999/02/22-rdf-syntax-ns#"
   xmlns:svg="http://www.w3.org/2000/svg"
   xmlns="http://www.w3.org/2000/svg"
   xmlns:sodipodi="http://sodipodi.sourceforge.net/DTD/sodipodi-0.dtd"
   xmlns:inkscape="http://www.inkscape.org/namespaces/inkscape"
   id="master-artboard"
   viewBox="0 0 1399.9478 164.25952"
   version="1.1"
   x="0px"
   y="0px"
   width="1399.9478"
   height="164.25952"
   sodipodi:docname="bose-logo.svg"
   inkscape:version="0.92.4 (5da689c313, 2019-01-14)">
  <metadata
     id="metadata3783">
    <rdf:RDF>
      <cc:Work
         rdf:about="">
        <dc:format>image/svg+xml</dc:format>
        <dc:type
           rdf:resource="http://purl.org/dc/dcmitype/StillImage" />
        <dc:title></dc:title>
      </cc:Work>
    </rdf:RDF>
  </metadata>
  <defs
     id="defs3781" />
  <sodipodi:namedview
     pagecolor="#ffffff"
     bordercolor="#666666"
     borderopacity="1"
     objecttolerance="10"
     gridtolerance="10"
     guidetolerance="10"
     inkscape:pageopacity="0"
     inkscape:pageshadow="2"
     inkscape:window-width="1920"
     inkscape:window-height="1057"
     id="namedview3779"
     showgrid="false"
     inkscape:zoom="0.90612245"
     inkscape:cx="699.99999"
     inkscape:cy="82.142006"
     inkscape:window-x="-8"
     inkscape:window-y="-8"
     inkscape:window-maximized="1"
     inkscape:current-layer="master-artboard" />
  <g
     transform="matrix(4.7028315,0,0,4.7028315,0,-0.02448725)"
     id="g3776">
    <path
       style="fill:#ffffff;fill-opacity:1;fill-rule:nonzero;stroke:none"
       d="m 1270.06,261.125 c -23.03,0 -43.01,-13.215 -53.12,-30.738 -10.09,-17.532 -38.55,-67.067 -48.81,-84.61 -10.26,-17.57 3.16,-36.933 21.25,-36.933 h 169.35 c 0,0 -25.53,-44.192 -30.39,-52.617 -4.85,-8.434 -12.87,-12.82 -21.6,-12.82 h -26.33 c -8.72,0 -12.38,9.487 -9.25,15.19 3.16,5.723 10.14,17.524 10.14,17.524 h -153.5 c 0,0 -11.86,-20.559 -22.25,-38.562 -10.4,-17.989 3.45,-37.52 21.02,-37.52 h 286.88 c 22.83,0 43.1,12.45 54.02,31.484 10.92,19.02 36.6,63.793 47.7,82.848 11.09,19.051 -2.94,37.914 -20.59,37.914 h -169.3 c 0,0 27.69,47.969 31.27,54.18 3.59,6.195 11.77,11.351 20.9,11.351 h 26.41 c 8.6,0 12.23,-9.406 9.51,-14.328 -2.73,-4.937 -10.65,-18.429 -10.65,-18.429 h 153.32 c 0,0 14.51,25.054 23.03,39.816 8.51,14.766 -2.06,36.25 -21.66,36.25 h -287.35 m -265.82,-58.758 c -4.15,-7.074 -80.373,-139.183 -84.599,-146.59 -4.227,-7.41 -12.489,-12.37 -21.34,-12.37 h -26.66 c -8.543,0 -12.465,9.425 -9.184,15.132 3.285,5.684 80.309,139.07 85.008,147.242 4.719,8.176 13.648,12.035 21.211,12.035 h 26.734 c 7.7,0 12.96,-8.367 8.83,-15.449 z m 144.4,58.758 H 862.035 c -20.84,0 -42.371,-11.219 -53.519,-30.445 C 797.363,211.445 706.43,53.871 696.563,36.777 686.68,19.668 700.25,0.04 717.91,0.04 H 1005 c 23.13,0 43.43,13.074 53.52,30.508 10.09,17.441 102.22,177.094 111.82,193.723 9.6,16.664 -2.72,36.855 -21.7,36.855 m -517.335,-58.7 c -3.825,-6.762 -16.801,-29.11 -21.91,-37.949 -5.11,-8.864 -13.743,-12.153 -21.102,-12.153 h -81.258 l 37.813,65.473 h 77.515 c 8.067,0 12.75,-8.621 8.942,-15.371 z M 568.492,93.473 c -3.824,-6.742 -16.804,-29.094 -21.906,-37.95 -5.106,-8.824 -13.734,-12.156 -21.094,-12.156 -7.363,0 -81.258,0.024 -81.258,0.024 l 37.809,65.453 h 77.508 c 8.066,0 12.762,-8.629 8.941,-15.371 z M 740.434,261.125 H 416.641 L 290.906,43.391 0,43.367 V 0 c 0,0 574.727,0.04 596.438,0.04 21.703,0 42.3,11.276 53.761,31.015 11.446,19.761 29.395,51.05 37.11,64.457 7.726,13.449 -0.45,30.601 -14.758,35.051 21.043,0 42.273,12.507 52.66,30.406 10.391,17.898 26.859,46.75 36.336,63.144 9.488,16.348 -2.137,37.012 -21.113,37.012 m 902.666,0 L 1492.4,0.039 h 365.3 l 25.03,43.352 h -212.01 l 37.8,65.453 h 212.01 l 25.08,43.441 h -212.02 l 37.84,65.551 397.88,-0.02 v 43.309 H 1643.1 m 562.48,-21.289 h 5.84 c 1.88,0 3.87,1.098 3.87,3.094 v 1.215 c -0.04,1.96 -1.79,3.57 -3.87,3.57 h -5.84 z m 8.62,-2.902 6.27,-9.922 h -4.9 l -6,9.468 h -3.99 v -9.468 h -4.28 v 24.386 h 10.7 c 4.2,0 7.41,-3.058 7.41,-7.097 v -1.098 c 0,-3.172 -2.04,-5.43 -5.21,-6.269 z m -4.2,-16.645 c 10.78,0 18.91,8.133 18.91,18.914 0,10.82 -8.21,19.098 -18.95,19.098 -10.9,0 -19.05,-8.278 -19.05,-19.098 0,-10.781 8.19,-18.914 19.09,-18.914 z m -0.04,41.676 c 12.9,0 22.71,-9.82 22.71,-22.723 0,-12.894 -9.81,-22.562 -22.71,-22.562 -13.06,0 -22.77,9.605 -22.77,22.562 0,12.903 9.71,22.723 22.77,22.723"
       transform="matrix(0.13333,0,0,-0.13333,0,34.933)"
       id="path3774"
       inkscape:connector-curvature="0" />
  </g>
</svg>
