<?xml version="1.0" encoding="iso-8859-1"?>
<!-- Generator: Adobe Illustrator 18.0.0, SVG Export Plug-In . SVG Version: 6.00 Build 0)  -->
<!DOCTYPE svg PUBLIC "-//W3C//DTD SVG 1.1//EN" "http://www.w3.org/Graphics/SVG/1.1/DTD/svg11.dtd">
<svg version="1.1" id="Capa_1" xmlns="http://www.w3.org/2000/svg" xmlns:xlink="http://www.w3.org/1999/xlink" x="0px" y="0px"
	 viewBox="0 0 239.988 239.988" style="enable-background:new 0 0 239.988 239.988;" xml:space="preserve">
<path d="M26.674,45.892L0,38.843L7.664,9.839l49.01,12.951v20.906h183.314l-31.314,101.955h-152v23.022h145.648l-8.158,29h-19.926
	c2.393,3.362,3.814,7.464,3.814,11.904c0,11.361-9.209,20.571-20.57,20.571c-11.361,0-20.572-9.21-20.572-20.571
	c0-4.44,1.422-8.542,3.814-11.904H84.238c2.393,3.362,3.814,7.464,3.814,11.904c0,11.361-9.209,20.571-20.57,20.571
	s-20.572-9.21-20.572-20.571c0-4.44,1.422-8.542,3.815-11.904h-9.051h-15V45.892z"/>
<g>
</g>
<g>
</g>
<g>
</g>
<g>
</g>
<g>
</g>
<g>
</g>
<g>
</g>
<g>
</g>
<g>
</g>
<g>
</g>
<g>
</g>
<g>
</g>
<g>
</g>
<g>
</g>
<g>
</g>
</svg>
