<?xml version="1.0" encoding="UTF-8" standalone="no"?>
<svg
   xmlns:dc="http://purl.org/dc/elements/1.1/"
   xmlns:cc="http://creativecommons.org/ns#"
   xmlns:rdf="http://www.w3.org/1999/02/22-rdf-syntax-ns#"
   xmlns:svg="http://www.w3.org/2000/svg"
   xmlns="http://www.w3.org/2000/svg"
   xmlns:sodipodi="http://sodipodi.sourceforge.net/DTD/sodipodi-0.dtd"
   xmlns:inkscape="http://www.inkscape.org/namespaces/inkscape"
   id="master-artboard"
   viewBox="0 0 1399.969 417.63171"
   version="1.1"
   x="0px"
   y="0px"
   width="1399.969"
   height="417.63171"
   sodipodi:docname="logitech-logo.svg"
   inkscape:version="0.92.4 (5da689c313, 2019-01-14)">
  <metadata
     id="metadata3805">
    <rdf:RDF>
      <cc:Work
         rdf:about="">
        <dc:format>image/svg+xml</dc:format>
        <dc:type
           rdf:resource="http://purl.org/dc/dcmitype/StillImage" />
      </cc:Work>
    </rdf:RDF>
  </metadata>
  <defs
     id="defs3803" />
  <sodipodi:namedview
     pagecolor="#ffffff"
     bordercolor="#666666"
     borderopacity="1"
     objecttolerance="10"
     gridtolerance="10"
     guidetolerance="10"
     inkscape:pageopacity="0"
     inkscape:pageshadow="2"
     inkscape:window-width="1920"
     inkscape:window-height="1057"
     id="namedview3801"
     showgrid="false"
     inkscape:zoom="0.20285714"
     inkscape:cx="699.99999"
     inkscape:cy="208.81834"
     inkscape:window-x="-8"
     inkscape:window-y="-8"
     inkscape:window-maximized="1"
     inkscape:current-layer="master-artboard" />
  <g
     transform="matrix(1.4948322,0,0,1.4948322,0,-0.004955)"
     id="g3798">
    <path
       style="fill:#ffffff;fill-opacity:1;fill-rule:nonzero;stroke:none"
       d="M 3511.09,1949.87 H 3255.84 V 1634.9 h -137.53 v -227.28 h 137.53 V 612.07 h 255.25 v 795.55 h 139.61 v 227.28 h -139.61 z m -632.01,145.56 c -93.75,0 -167.53,-73.78 -167.53,-169.49 0,-93.67 73.78,-167.49 167.53,-167.49 97.67,0 171.49,73.82 171.49,167.49 0,95.71 -73.82,169.49 -171.49,169.49 m 4057.35,-436.68 c -43.78,0 -77.74,33.91 -77.74,77.81 0,41.87 33.96,75.78 77.74,75.78 41.94,0 75.77,-33.91 75.77,-75.78 0,-43.9 -33.83,-77.81 -75.77,-77.81 m 0,165.49 c -49.78,0 -89.64,-39.86 -89.64,-87.68 0,-49.85 39.86,-89.75 89.64,-89.75 47.89,0 87.79,39.9 87.79,89.75 0,47.82 -39.9,87.68 -87.79,87.68 M 3947.69,1230.1 c 33.91,135.58 137.61,211.35 271.19,211.35 133.62,0 233.24,-73.74 265.19,-211.35 z m 277.13,436.68 c -306.97,0 -540.29,-235.32 -540.29,-548.33 0,-309.009 213.39,-536.309 544.3,-536.309 183.43,0 346.96,67.757 466.59,195.418 l -171.48,169.41 c -83.76,-79.77 -173.48,-137.528 -289.13,-137.528 -139.52,0 -245.22,79.77 -281.09,213.299 h 795.47 v 61.8 c 0,348.96 -215.26,582.24 -524.37,582.24 m 2258.98,0 c -125.59,0 -233.23,-47.82 -309.01,-129.62 v 530.3 H 5919.54 V 612.07 h 255.25 v 556.23 c 0,147.52 93.75,249.26 249.21,249.26 145.57,0 225.34,-89.71 225.34,-249.26 V 612.07 h 255.21 v 602.09 c 0,283.09 -177.52,452.62 -420.75,452.62 m 432.68,71.74 v 31.96 h 19.95 c 16.01,0 22.01,-6.03 22.01,-16.02 0,-9.95 -6,-15.94 -22.01,-15.94 z m 53.85,15.94 c 0,19.93 -13.97,27.96 -33.9,27.96 h -31.88 v -91.71 h 11.93 v 35.87 h 19.95 l 22.01,-35.87 h 13.85 l -23.84,37.82 c 13.98,2.08 21.88,9.99 21.88,25.93 m -1587.1,-334.94 c 107.66,0 195.42,-55.81 263.21,-133.62 l 177.43,175.48 c -99.66,125.63 -257.21,205.4 -436.59,205.4 -309.02,0 -552.33,-235.32 -552.33,-542.29 0,-307.06 243.31,-542.349 552.33,-542.349 179.38,0 336.93,79.789 436.59,205.289 l -177.43,175.48 c -65.8,-75.75 -155.55,-133.539 -265.16,-133.539 -163.54,0 -289.16,127.578 -289.16,295.119 0,167.49 125.62,295.03 291.11,295.03 M 2753.45,612.07 h 255.26 V 1634.9 H 2753.45 Z M 907.191,829.371 c -163.535,0 -293.16,129.539 -293.16,297.069 0,165.54 129.625,293.08 293.16,293.08 165.459,0 295.079,-127.54 295.079,-295.03 0,-167.541 -129.62,-295.119 -295.079,-295.119 m 0,837.409 c -309.093,0 -552.32,-235.32 -552.32,-542.29 0,-307.06 243.227,-542.349 552.32,-542.349 309.019,0 552.239,235.289 552.239,542.349 0,306.97 -243.22,542.29 -552.239,542.29 M 0,612.07 H 255.25 V 2067.46 H 0 Z m 2099.47,217.301 c -163.45,0 -293.07,129.539 -293.07,297.069 0,165.54 129.62,293.08 293.07,293.08 165.5,0 295.12,-127.54 295.12,-295.03 0,-167.541 -129.62,-295.119 -295.12,-295.119 m 542.34,602.089 v 203.44 h -358.95 c -57.76,19.85 -119.55,31.88 -183.39,31.88 -309.01,0 -552.23,-235.32 -552.23,-542.29 0,-307.06 243.22,-542.349 552.23,-542.349 309.02,0 552.33,235.289 552.33,542.349 0,103.65 -27.97,205.31 -83.77,281.08 z M 2099.47,249.18 c -163.45,0 -293.07,127.57 -293.07,293.058 H 1547.24 C 1547.24,235.191 1790.46,0 2099.47,0 2408.49,0 2651.8,235.191 2651.8,542.238 h -259.25 c 0,-165.488 -129.63,-293.058 -293.08,-293.058"
       transform="matrix(0.13333,0,0,-0.13333,0,279.387)"
       id="path3796"
       inkscape:connector-curvature="0" />
  </g>
</svg>
