<?xml version="1.0" encoding="UTF-8" standalone="no"?>
<svg
   xmlns:dc="http://purl.org/dc/elements/1.1/"
   xmlns:cc="http://creativecommons.org/ns#"
   xmlns:rdf="http://www.w3.org/1999/02/22-rdf-syntax-ns#"
   xmlns:svg="http://www.w3.org/2000/svg"
   xmlns="http://www.w3.org/2000/svg"
   xmlns:sodipodi="http://sodipodi.sourceforge.net/DTD/sodipodi-0.dtd"
   xmlns:inkscape="http://www.inkscape.org/namespaces/inkscape"
   id="master-artboard"
   viewBox="0 0 1399.9072 327.67459"
   version="1.1"
   x="0px"
   y="0px"
   width="1399.9072"
   height="327.67459"
   sodipodi:docname="msi-logo.svg"
   inkscape:version="0.92.4 (5da689c313, 2019-01-14)">
  <metadata
     id="metadata3827">
    <rdf:RDF>
      <cc:Work
         rdf:about="">
        <dc:format>image/svg+xml</dc:format>
        <dc:type
           rdf:resource="http://purl.org/dc/dcmitype/StillImage" />
      </cc:Work>
    </rdf:RDF>
  </metadata>
  <defs
     id="defs3825" />
  <sodipodi:namedview
     pagecolor="#ffffff"
     bordercolor="#666666"
     borderopacity="1"
     objecttolerance="10"
     gridtolerance="10"
     guidetolerance="10"
     inkscape:pageopacity="0"
     inkscape:pageshadow="2"
     inkscape:window-width="640"
     inkscape:window-height="480"
     id="namedview3823"
     showgrid="false"
     inkscape:zoom="0.20285714"
     inkscape:cx="699.99999"
     inkscape:cy="163.85932"
     inkscape:window-x="0"
     inkscape:window-y="0"
     inkscape:window-maximized="0"
     inkscape:current-layer="master-artboard" />
  <g
     transform="matrix(8.6698045,0,0,8.6698045,0,-0.04403057)"
     id="g3820">
    <path
       style="fill:#ffffff;fill-opacity:1;fill-rule:evenodd;stroke:none"
       d="m 1188.91,270.09 h -4.66 v -8.762 h 4.66 c 2.79,0 4.73,1.828 4.73,4.348 0,2.527 -1.94,4.414 -4.73,4.414 z m 4.87,-21.945 -5.74,10.214 h -3.79 v -10.214 h -3.46 v 25.05 h 8.49 c 4.36,0 7.88,-3.281 7.88,-7.519 0,-3.664 -2.25,-5.93 -5.34,-6.875 l 6,-10.656 z m -5.55,31.984 c -10.62,0 -19.18,-8.77 -19.18,-19.492 0,-10.735 8.56,-19.504 19.18,-19.504 10.58,0 19.24,8.769 19.24,19.504 0,10.722 -8.66,19.492 -19.24,19.492 z m 0,-42.344 c -12.63,0 -22.84,10.235 -22.84,22.852 0,12.617 10.21,22.832 22.84,22.832 12.61,0 22.82,-10.215 22.82,-22.832 0,-12.617 -10.21,-22.852 -22.82,-22.852 z M 443.648,0 508.223,178.145 c 21.543,59.394 -57.496,37.687 -75.153,24.035 -13.871,-10.715 -39.152,-35.129 -48.457,-60.762 L 333.344,0 H 221.832 l 64.574,178.145 c 21.528,59.394 -57.48,37.687 -75.152,24.035 -13.883,-10.715 -39.176,-35.137 -48.473,-60.782 L 111.523,0 H 0 l 102.527,282.773 c 35.516,0 54.719,-8.171 70.868,-24.043 5.89,-5.8 9.57,-13.308 11.585,-21.335 20.918,12.656 39.415,22.148 51.86,27 23.187,9.082 51.988,18.39 87.512,18.378 35.496,0 54.711,-8.171 70.843,-24.043 5.903,-5.8 9.594,-13.308 11.606,-21.335 20.918,12.656 39.422,22.148 51.859,27 23.176,9.082 52,18.39 87.5,18.378 35.52,0 54.723,-8.171 70.856,-24.043 16.121,-15.808 15.75,-44.734 9.918,-60.769 L 555.16,0 Z M 611.73,50.684 c 34.817,-6.36 70.708,-9.668 107.336,-9.668 h 0.02 c 37.617,0 64.918,8.379 67.867,33.925 1.43,12.16 -10.055,20.91 -31.113,32.508 -24.086,13.305 -44.34,19.934 -65.266,33.949 -20.929,14.004 -29.961,36.036 -22.894,59.375 8.234,27.266 27.379,43.067 56.554,57.977 34.207,17.461 61.297,24.023 127.274,24.023 41.543,0 82.176,-4.003 121.5,-11.609 l -14.164,-39.043 c -34.821,6.348 -70.692,9.656 -107.336,9.656 -37.625,0 -64.942,-8.398 -67.891,-33.933 -1.406,-12.18 10.055,-20.93 31.129,-32.531 24.078,-13.282 44.34,-19.911 65.266,-33.915 20.949,-14.015 29.953,-36.046 22.91,-59.406 -8.25,-27.226 -27.41,-43.039 -56.574,-57.96 C 812.148,6.561 785.039,0 719.086,0 h -0.02 A 638.298,638.298 0 0 0 597.59,11.64 Z m 403.67,220.48 -14.86,-40.996 c 58.22,11.609 115.73,11.609 115.73,11.609 l 14.87,40.996 c 0,0 -57.87,0 -115.74,-11.609 M 1028.61,0 l 77.42,213.508 c 0,0 -57.88,0 -115.737,-11.621 L 917.102,0 h 111.508"
       transform="matrix(0.13333,0,0,-0.13333,0,37.8)"
       id="path3818"
       inkscape:connector-curvature="0" />
  </g>
</svg>
